<svg xmlns="http://www.w3.org/2000/svg" viewBox="0 0 1042.56 961.25">
  <defs>
    <style>
      .cls-1, .cls-6 {
        fill: #6d8e3c;
      }

      .cls-1 {
        opacity: 0.4;
      }

      .cls-11, .cls-14, .cls-15, .cls-16, .cls-2 {
        fill: none;
      }

      .cls-11, .cls-14, .cls-2, .cls-3, .cls-5 {
        stroke: #263238;
      }

      .cls-11, .cls-14, .cls-15, .cls-16, .cls-2, .cls-5 {
        stroke-linecap: round;
        stroke-linejoin: round;
      }

      .cls-11, .cls-15, .cls-16, .cls-2, .cls-3, .cls-5, .cls-8 {
        stroke-width: 1.1px;
      }

      .cls-2 {
        stroke-dasharray: 4.41;
      }

      .cls-3, .cls-9 {
        fill: #9bd2a5;
      }

      .cls-3, .cls-8 {
        stroke-miterlimit: 10;
      }

      .cls-4 {
        fill: #3e602c;
      }

      .cls-10, .cls-12, .cls-5, .cls-8 {
        fill: #fff;
      }

      .cls-7 {
        fill: #263238;
      }

      .cls-8 {
        stroke: #1d1d1b;
      }

      .cls-12 {
        opacity: 0.5;
      }

      .cls-13, .cls-15 {
        opacity: 0.2;
      }

      .cls-14 {
        stroke-width: 2.21px;
      }

      .cls-15, .cls-16 {
        stroke: #fff;
      }
    </style>
  </defs>
  <g id="Layer_1" data-name="Layer 1">
    <path class="cls-1" d="M1061,615c-5.84-2-44.23,20.44-61.52,22.23s-27,11.68-27,11.68v-3.15C953.9,648.23,939.75,661,939.75,661l-1.57-6.51c-4-.45-18.86,10.78-18.86,10.78l-.67-3.15c-33.46,8.76-24.48,20.44-27.85,20s-4.49-10.55-4.49-10.55c-28.29,9.65-38.17,25.59-38.17,25.59l-4-10.1a120,120,0,0,1-17.74,9.65c-8.3,3.37-18.41,18.41-18.41,18.41l-1.79-9.65s-1.35.22-14.82,5.16-24.48,21.56-24.48,21.56l-4.49-11C724.43,738.72,726,754,723.53,754s-3.37-10.33-3.37-10.33-1.35,2.25-13.25,8.76-12.57,18.41-14.14,17.74-5.17-8.54-5.17-8.54-7.86,9.43-15,13.47-10.1,11.68-10.1,11.68l-4.5-5.16c0,2-13.69,12.12-15.94,14.37s-5.61,8.3-5.61,8.3-1.57-6.06-2.25-6.06-37.72,33.23-43.56,37-46.25,36.37-41.53,21.78,83.52-72.3,83.52-72.3L627,779.36c20-7.18,26.94-14.59,26.94-14.59a8.48,8.48,0,0,1-5.16-4.49c22.23-9.66,28.07-15.72,28.07-15.72-2-.23-4.5-4.72-4.5-4.72,27.17-8.3,38.4-26.94,38.4-26.94-7-1.12-7-6.51-7-6.51,28.51-14.6,40.86-29.42,40.86-29.42-9.43.23-9.88-5.83-9.88-5.83,19.76-6.74,33.68-26.5,33.68-26.5-6.06,0-11.22-3.82-11.22-3.82,23.57-12.12,36.15-33.45,36.15-33.45-6.51.22-11.45-4.72-11.45-4.72C810,591.43,814.69,575,814.69,575c-8.31-.23-11-5.62-11-5.62,27.16-12.8,34.35-31.66,34.35-31.66-10.1-.44-12.35-5.16-12.35-5.16,20-9,34.35-29.41,34.35-29.41-14.39-2.4-14.59-5.86-14.59-6.07,24-12.35,34.35-38.62,34.35-38.62-9.2-.22-13.47-2.91-13.47-2.91,25.15-17.29,28.29-38.4,28.29-38.4-9,.45-11.45-4-11.45-4,20-10.55,23.8-34.58,23.8-34.58-9.43.67-11.67-3.37-11.67-3.37,16.84-9.88,19.53-31.21,19.53-31.21h-8.76a47.69,47.69,0,0,0,14.15-30.31l-7-.45s8.75-7,13.25-20.88,11.67-25.15,15.94-33c4.13-7.61,9.52-20.28,9.86-21.06-.53.69-9.25,12.08-31.87,33.19-23.35,21.78-20.21,29-20.21,29l-2.47-2.92c-20.65,14.15-19.75,29-19.75,29l-5.17-5.84c-22.45,16.62-20.66,35.93-20.66,35.93l-8.53-9.88a136.17,136.17,0,0,1-14.59,14.82c-8.76,7.63-9.88,31.21-9.88,31.21L808.4,381.94s-8.08,11.9-13.47,20.66-4.72,21.1-4.72,21.1l-9.88-9.65s-8.75,19.76-14.81,28.29-4.72,19.08-4.72,19.08l-10.33-11c-18.41,20.88-20.66,46.25-20.66,46.25l-9.87-8.3c-7.64,14.14-11.68,36.15-11.68,36.15L702,516.66s-12.35,20.66-13.92,26.27-1.35,16.84-1.35,16.84c-4.49-.23-11.45-9.21-11.45-9.21s-9.2,20-11.9,30.31-1.12,17.29-1.12,17.29c-5.16-.22-12.12-9.65-12.12-9.65a91,91,0,0,0-12.58,45.58l-9.2-8.08c-9.43,16.61-10.78,43.33-10.78,43.33l-7.86-5.84a275.6,275.6,0,0,0-6.29,42L596.67,703c-2.25,4.72-1.57,28.29-1.57,28.29l-4.5-2.92c-2.91,5.62-4.71,24.93-4.71,24.93s-8.08-6.29-7.86-2.7-10.33,41.76-13.25,54.56S552.43,839.76,549.07,847s-3.6,7.4-4.94,6.51-.23-23.35,4.26-55.24,16.17-62.42,20.44-71.85S574,715.59,574,715.59l-1.8-.45c10.56-19.53,14.6-33.23,14.6-33.23h-11.9c14.14-18.18,21.33-49.39,21.33-49.39l-13-.45c9.65-9.21,23.35-46.26,23.35-46.26l-15.72,1.13C606.32,565.83,611.94,531,611.94,531l-16.4,3.37c22.68-32.79,22-59.06,22-59.06a24.82,24.82,0,0,1-16.84,2.92c20.88-46.92,15-56.13,15-56.13-20.21,6.06-18,1.8-18,1.8,15.72-28.52,16.84-63.1,16.84-63.1-4.27,2.25-19.09,4-19.09,4,12.35-29.86,15.27-65.11,13.93-61.74s-18.19,3.81-18.19,3.81,6.29-11.45,8.76-17.73,2.24-42.22,1.57-40-16.84,7.41-16.84,7.41,4.94-9.88,7-15.49-1.8-35.25-2.47-33.68-14.37,6.41-15.23,6.71a37.55,37.55,0,0,0,7.14-12.78c2.7-8.08-1.57-33.23-2.24-30.53s-9.66,5.16-9.66,5.16c5.84-19.08,1.13-31.88,1.13-31.88l-7,4.26c5.61-14.37-3.15-29.18-3.15-29.18l-5.39,5.61s-2.24-23.8-5.61-31-9.47-62.19-9.47-62.19,1.16,35.92-8,58.83-7.64,34.8-7.64,34.8l-4.94-7.19s-3.36,9.66-4.26,15.27-.23,15.72-.23,15.72l-6.28-4.94s-1.8,17.74-.9,24.92c.73,5.84,1.46,7.07,1.7,7.34l-8.44-6s-3.14,16.84-1.79,27.84,5.83,15,5.83,15c-5.39.23-14.82-7-14.82-7-1.79,7.86-2,30.77-.89,38s10.32,12.13,5.61,11.9-16.39-7-16.39-7,2.24,44.23,5.39,49.4a58.21,58.21,0,0,1,4.49,8.75l-18.19-4s4.72,30.54,5.61,37.27S484,365.77,484,365.77l-18.63-4.94s3.81,21.56,6.28,38.62,11.45,25.82,11.45,25.82l-19.76-2.47c.45,15.95,4.72,33.68,9.66,42.66a77.35,77.35,0,0,1,6.51,14.6l-17.29-4.49s3.82,24.25,7.41,34.35,14.82,25.6,14.82,25.6l-15.49-4.72c0,12.8,6.29,32.34,10.55,39.75s10.11,17.06,10.11,17.06l-15.72-1.35c4,13.47,15.94,35.25,19.31,40.64s3.37,6.74,3.37,6.74H483.05s6.74,14.59,11.45,28.29,10.33,20.43,10.33,20.43l-12.12-.45c-.23,4.94,14.37,33.91,14.37,33.91l-1.35.67a292.45,292.45,0,0,1,16.39,39.74c7,21.56,11.9,61.75,12.8,80.16s-.22,17.29-.22,17.29c-8.31-9-17.29-43.78-22-57.25s-11.9-46.26-11.9-46.26l-7.63,2.25c1.34-8.09-3.82-23.8-3.82-23.8L484,731.31l-1.35-29-6.28,1.34c.45-6.73-6.74-40-6.74-40l-7.86,4.49a84.78,84.78,0,0,1,.68-9.21c.67-5.61-10.78-32.78-10.78-32.78L442,633.64s-1.12-9.88-1.12-18.39-10.55-28.09-10.55-28.09c0,5.17-12.58,11.23-12.58,11.23s-.22-3.82-.22-11.45-13-38.4-13-36.6-10.56,9.43-10.56,9.43,0-3.82-.67-12.58-16.39-31.43-16.39-31.43a16.73,16.73,0,0,1-6.74,8.76c1.8-10.78-9.65-38.4-9.65-36.38S349,496.45,349,496.45a97.38,97.38,0,0,0-1.35-13.7c-1.35-8.53-18.41-33.23-18.64-32.33s-10.32,11.23-10.32,11.23-.45-12.13-.45-13.7-19.09-33.68-19.09-33.68L288.83,423s-.67-9.66-1.12-14.6-16.84-26.94-16.84-26.94l-10.33,11s-.67-1.79-2-15-22.68-32.56-22.68-32.56l-8.3,12.35s-1.58-10.55-2.7-16.17-18.41-20.88-18.41-20.88l-4.94,6.29c0-15.94-19.09-29.86-19.09-29.86s-2,7.41-2,3.59-5.61-11.68-11.45-17.74-18.86-19.31-24.25-26.72c-5.25-7.22-16.93-17.66-17.49-18.15a17.65,17.65,0,0,0,1.33,4c.67,1.12,21.78,41.31,28.51,55.9s9,16.62,9,16.62H160c4.27,25.6,13.7,30.54,13.7,30.54h-9s2.47,10.32,6.51,18,13.69,13.92,13.47,14.59-11.23.9-11.23.9c0,3.59,8.54,23.8,16.17,30.54s6.74,7.18,6.74,7.18l-11.68,1.35s.22,5.16,9.66,19.76,19.53,15.72,19.53,18.64-12.57,2.24-12.57,2.24l6.06,14.82c10.1,21.78,28.06,20.88,28.29,24.92s-15.94,6.29-15.94,6.29c12.35,19.08,34.8,26.27,34.8,29.64S241.91,538,241.91,538c5.61,18.63,35,28.74,35.7,31.21s-12.8,6.06-12.8,6.06c7,20.88,34.35,25.15,33.23,28.07s-11.45,4.49-11.45,4.49c13,20.21,35.7,32.78,35.7,32.78-4.27,3.59-11.45,3.82-11.45,3.82,18.86,25.37,35.47,27.17,35.47,27.17-5.39,7-12.35,4.71-12.35,4.71,11,15.27,43.11,31.88,43.11,31.88l-7.63,5.17c11.23,18,38.4,27.17,38.4,27.17l-4.72,5.39c9.21,7.63,27.39,15.26,27.39,15.26l-4.49,3.6c1.8,5.61,26.05,15,26.05,15s-4.72,4.72-4.27,5.84,36.83,27.39,39.3,29.41,29.18,24.48,33.9,29.64,8.76,11.45,8.76,13.7-2.25.45-8.31-2.25-32.33-19.31-39.74-26-36.15-31.21-36.15-31.21-2.7,11.22-3.37,4.49-20.66-22.46-20.43-21.33-5.17,4.49-5.17,4.49c-1.12-6.52-24.47-26.72-24.47-24.48s-5.17,7.86-5.17,7.86c-1.79-11-26.72-27.62-26.72-27.62.23,6.74-5.38,11.23-5.38,11.23-5.84-18.19-38.17-35.93-38-31.88s-5.16,9.43-5.16,9.43C301,710.65,274,704.82,274,704.82s-2,15-4,9.88-36.37-30.77-35-27.4-4.27,10.56-4.27,10.56c-6.29-17.52-37.27-26.27-37.27-26.27.67,6.06-5.39,10.55-5.39,10.55,0-12.58-27-20-27-20s1.13,7.19-1.57,3.15-18.41-11.45-18.41-11.45l-.67,6.73c-2.92-3.81-33-15-33-15s.23,5.84-1.35,2.92-9.88-4-23.57-11c-13.25-6.72-60.87-20.38-64-21.28,18.62,7,43.62,27.34,47.66,29.58s11.45,11.9,16.84,15.72a54.47,54.47,0,0,1,9.43,8.76s-2.47.22-1.57,1.79,23.12,21.56,25.82,23.58,6.28,2.69,9,2.92,2.92.45,2.92,1.8-7.41,4.94-7.41,4.94,9.43,11.45,19.08,15.49A63.74,63.74,0,0,0,157,725.47L151,730.86a119,119,0,0,0,37.27,24.7c4.27,2,13.92-1.35,14.82,1.57s-9.88,10.56-9.88,10.56c.9,2.91,26,12.57,29.42,13.92s21.33.45,21.33,2.24-11,10.78-11,10.78C248,806.53,285,805.41,285,805.41l-9.66,8.3c20,12.35,47.6,8.76,47.6,8.76l-5.84,9.21c13.48,4.49,40.64,5.39,40.64,5.39l-4.49,6.73c8.09,3.82,39.75,2,39.75,2l-2.47,4.72c4,2.92,35.92,2.24,35.92,2.24l-2.24,4.76s27.84,1.53,46.7.18,44.91,5.17,47.6,5.39,9.43,4.49,9.65,5.39-5.16,5.16-15.26,2.25-32.79-3.19-32.79-3.19l.9,3.19c-4.49-3.82-26.94-3.15-26.94-3.15l2.92,5.62c-10.11-2.25-30.09-1.8-30.09-1.8,2.25,2,2.69,6.51,2.69,6.51-15.49-7.18-32.55-.67-32.55-.67,3.37,1.79,4.94,6.51,4.94,6.51-10.78-4.27-31,.67-31,.67l3.82,4.49c-4.72-1.79-18.41,2.92-18.41,2.92l1.79,4.27C348.11,895,338.68,899,338.68,899l1.87,4.49L324.76,906l.45,3.81L323,911.16c-10.33,6.29-8.08,9.43-8.08,9.43-42.44,10.78-45.58,20-45.58,20a156.22,156.22,0,0,1,50.07-6.46v2.19c7.63,1.57,25.37,0,25.37,0v3.37c16.62-.9,25.37-4.72,25.37-4.72v4.72c14.37-.23,22.46-5.56,22.46-5.56l-1.13,3.54c25.15-2.7,32.11-11.45,32.11-11.45v4.93c36.38-5.83,39.74-16.39,39.74-16.39v4.49c16.62-3.36,30.54-17.06,30.54-17.06l1.57,2.47c8.09-4.49,15.27-15.72,22.91-23.35S532.23,875,534,876.36s-2.69,113.16-2.69,113.16c10.33,7.64,16.61,0,16.61,0s.23-22,.23-27.39-2.92-80.38-2.92-84.65,5.61-2,7.86-2,10.1,7.63,17.74,16.84,15,12.57,15,12.57l.9-1.57c22.9,15.05,29.19,15.94,29.19,15.94l.45-4c26.49,15.27,39.74,15.72,39.74,15.72l-.23-4.71c9,9.2,33,12.79,33,12.79l-1.57-5.16c4.49,2.69,22.23,6.29,22.23,6.29l-1.13-4.49c8.31,2.24,26.95,4,26.95,4l-1.35-4c4.72,0,25.82,1.57,25.82,1.57l-.45-3.37c8.76-2.25,51,6.29,51,6.29-5.39-9.88-46-20-46-20l1.8-1.79c-.23-4.27-13-8.31-13-8.31l1.57-3.59c-3.59-1.35-16.62-3.6-16.62-3.6l1.57-3.81c-6.51-3.15-19.31-2.92-19.31-2.92l2.47-4.94c-4.94-2.92-18.63-2.92-18.63-2.92l4-3.14c-14.37-7.41-30.54,0-31-1.58s5.62-6.06,5.62-6.06c-16.49-6.81-33.2-.07-33.89.21l3.8-6.72c-3.14-1.35-29.86,2.47-29.86,2.47l2.69-6.06c-9.2-1.8-26.49,2.69-26.49,2.69l.45-3.59c-18.86,0-43.11,10.1-47.6,3.14s32.33-10.77,42.66-11.67,60.62-.9,60.62-.9l-1.57-4.27c23.13,4,36.15-1.79,36.15-1.79l-3.15-5.62c19.76,2.47,40-1.57,40-1.57-4-.67-4-8.53-4-8.53,28.29,2.24,39.74-3.37,39.74-3.37l-4.26-9c31.88,2,45.58-9,45.58-9-2.47-.23-7.64-9-7.64-9,31.66,1.79,53-10.78,50.3-10.78s-11.23-10.78-11.23-10.78l11.45.23c11.45.22,39.74-16.17,39.74-16.17-3.14-1.12-9.43-10.78-9.43-10.78l4.27.9c17.51-.45,47.6-27.17,47.6-27.17-3.82-.45-5.16-6.06-5.16-6.06,20.65-1.12,35.25-18.64,35.25-18.64-3.37.23-7.86-7.41-7.86-7.41h7.18c3.6,0,31.66-26.94,31.66-26.94L986.46,670c3.36-1.34,18-17.06,29.18-25.59S1061,615,1061,615ZM884.29,342.87C768.92,572.29,564.78,829.13,558.42,837.1,656.36,705.38,767.85,531.72,884.29,342.87Zm-691.56,0L523.41,843.18C506.12,846.81,188.9,356.25,192.73,342.87ZM295.57,772.29c-51.72-23.88-168.79-99.79-172.44-102.16C286.83,768.56,365,797.19,371.35,798.56,378,800,515.7,857.89,520,859.71,487.9,849.73,348.05,796.52,295.57,772.29Zm165.7,123.83c-48,14.55-124.14,27-129.06,27.78,7.65-2.15,101.32-25.8,108.41-28s77.91-20.69,79.46-21.08C519.48,875.18,509.34,881.54,461.27,896.12Zm78.37-55.24c-6.25-34.87-.25-665.12.18-671.8C550.11,330.75,539.64,840.88,539.64,840.88ZM746,924c-162.22-31-187-48.61-187.69-49.15C568.36,878.66,746,924,746,924ZM561.17,859.67c8-3.07,265.89-102.35,394.52-189.43C957.81,671.9,790,791,561.17,859.67Z" transform="translate(-18.44 -31.67)"/>
  </g>
  <g id="Layer_2" data-name="Layer 2">
    <path class="cls-2" d="M261.79,576.42H255a27.68,27.68,0,0,0-27.68,27.68V756A27.68,27.68,0,0,0,255,783.67H348.8A27.68,27.68,0,0,0,376.48,756h0" transform="translate(-18.44 -31.67)"/>
    <g>
      <g>
        <rect class="cls-3" x="252.44" y="510.16" width="165.08" height="215.83" rx="13.11"/>
        <rect class="cls-4" x="252.44" y="510.16" width="165.08" height="215.83" rx="13.11"/>
        <g>
          <path class="cls-5" d="M451.32,574.68V757.42A16.55,16.55,0,0,1,434.77,774h-132a16.54,16.54,0,0,1-16.54-16.56V574.68a16.54,16.54,0,0,1,16.54-16.54h132A16.55,16.55,0,0,1,451.32,574.68Z" transform="translate(-18.44 -31.67)"/>
          <path class="cls-6" d="M451.32,574.68v9.79H286.25v-9.79a16.54,16.54,0,0,1,16.54-16.54h132A16.55,16.55,0,0,1,451.32,574.68Z" transform="translate(-18.44 -31.67)"/>
          <rect class="cls-6" x="283.33" y="564.14" width="40.61" height="6.81"/>
          <rect class="cls-6" x="283.33" y="625.21" width="40.61" height="6.81"/>
          <rect class="cls-6" x="283.33" y="680.59" width="40.61" height="6.81"/>
          <g>
            <rect class="cls-7" x="283.33" y="581" width="115.34" height="5"/>
            <rect class="cls-7" x="283.33" y="590.56" width="94.55" height="4.87"/>
            <rect class="cls-7" x="283.33" y="599.96" width="106.93" height="4.87"/>
            <rect class="cls-7" x="283.33" y="609.36" width="106.93" height="4.87"/>
          </g>
          <g>
            <rect class="cls-7" x="283.33" y="636.38" width="115.34" height="5"/>
            <rect class="cls-7" x="283.33" y="645.94" width="94.55" height="4.87"/>
            <rect class="cls-7" x="283.33" y="655.34" width="106.93" height="4.87"/>
          </g>
          <g>
            <rect class="cls-7" x="283.33" y="697.2" width="115.34" height="5"/>
            <rect class="cls-7" x="283.33" y="706.76" width="94.55" height="4.87"/>
            <rect class="cls-7" x="283.33" y="716.16" width="106.93" height="4.87"/>
          </g>
        </g>
      </g>
      <g>
        <path class="cls-8" d="M637.36,431.43v73.86A19.72,19.72,0,0,1,617.63,525H447.51a19.72,19.72,0,0,1-19.72-19.72V431.43a19.74,19.74,0,0,1,19.72-19.74H617.63A19.73,19.73,0,0,1,637.36,431.43Z" transform="translate(-18.44 -31.67)"/>
        <path class="cls-6" d="M637.36,431.43v1.68H427.79v-1.68a19.74,19.74,0,0,1,19.72-19.74H617.63A19.73,19.73,0,0,1,637.36,431.43Z" transform="translate(-18.44 -31.67)"/>
        <path class="cls-7" d="M458.57,425.93a3,3,0,1,1,0-4.27A3,3,0,0,1,458.57,425.93Z" transform="translate(-18.44 -31.67)"/>
        <path class="cls-7" d="M472.61,425.93a3,3,0,1,1,0-4.27A3,3,0,0,1,472.61,425.93Z" transform="translate(-18.44 -31.67)"/>
        <path class="cls-7" d="M486.64,425.93a3,3,0,1,1,0-4.27A3,3,0,0,1,486.64,425.93Z" transform="translate(-18.44 -31.67)"/>
        <rect class="cls-2" x="422.71" y="415.03" width="68.5" height="59.21"/>
        <g>
          <rect class="cls-7" x="501.78" y="415.03" width="78.84" height="4.16"/>
          <rect class="cls-7" x="501.78" y="423.65" width="60.47" height="4.16"/>
          <rect class="cls-7" x="501.78" y="432.23" width="90.05" height="4.21"/>
          <rect class="cls-7" x="501.78" y="440.6" width="76.68" height="4.21"/>
        </g>
      </g>
    </g>
    <g>
      <path class="cls-9" d="M537.78,860.76s-36.6,10.49-41.71,12.3c-4.65,1.65-17.25,6.06-26.71,4.69a19.59,19.59,0,0,1-2.7-.58c-9.58-2.85-13.88-5.51-15.13-11.54s3.51-10.46,8.1-13.3,29.52-5.8,29.52-5.8l6,1.77h0Z" transform="translate(-18.44 -31.67)"/>
      <path class="cls-10" d="M469.36,877.75a19.59,19.59,0,0,1-2.7-.58c-9.58-2.85-13.88-5.51-15.13-11.54s3.51-10.46,8.1-13.3,29.52-5.8,29.52-5.8l6,1.77c-5.44,2.5-25.74,3.89-30.17,6.44s-6.57,7.35-3.95,13.84C462.43,872,466.16,875.37,469.36,877.75Z" transform="translate(-18.44 -31.67)"/>
      <path class="cls-11" d="M532.27,862.25s-27.49,7.12-38.39,11.68-31.69,6.55-39.1-2.85-.86-17.49,6.55-19.29,22.39-4.64,30.57-3.5" transform="translate(-18.44 -31.67)"/>
      <path class="cls-6" d="M469.91,877.25s-14-7.66-9.34-18.41c3.43-7.94,22.09-6.22,31.33-10.55l41.91,8.87-5.25,6.12s-26.16,7.14-34.68,10.65S472.49,878.34,469.91,877.25Z" transform="translate(-18.44 -31.67)"/>
      <path class="cls-9" d="M649.25,879.45c-.37,3.75-1.7,7.34-5.48,9.57-2.52,1.49-6.12,2.38-11.25,2.32-12.84-.16-37-9.34-37-9.34L573,869.51l11.75-18.6,3.21-5.09,8.32,1.86s6.87,3.9,13.79,7,23.71,3.75,29.63,8.54S649.89,873.22,649.25,879.45Z" transform="translate(-18.44 -31.67)"/>
      <path class="cls-10" d="M649.25,879.45c-.37,3.75-1.7,7.34-5.48,9.57a17,17,0,0,0-.64-11.28c-2.51-5.67-10.74-10.66-21.54-11.5s-19.08-5.89-23.41-8.14c-3.38-1.76-10.51-5.59-13.47-7.19l3.21-5.09,8.32,1.86s6.87,3.9,13.79,7,23.71,3.75,29.63,8.54S649.89,873.22,649.25,879.45Z" transform="translate(-18.44 -31.67)"/>
      <path class="cls-6" d="M578,873c16.08,9.22,34.48,15.85,52.88,18.07,4.11.5,8.89.56,11.65-2.53a8.65,8.65,0,0,0,1.9-6.45c-.5-5.8-5.38-10.4-10.73-12.7s-11.25-2.85-16.94-4.12a67.1,67.1,0,0,1-16.28-6c-4.09-2.13-8-4.72-12.55-5.67s-9.87.2-12.27,4.13" transform="translate(-18.44 -31.67)"/>
      <path class="cls-11" d="M641,890.13c4.16-2.14,7.57-6,8.27-10.68.81-5.47-2.3-11-6.69-14.32s-9.87-5-15.28-6.07-10.95-1.88-16.1-3.89c-7.92-3.1-15.72-9.21-23.94-7" transform="translate(-18.44 -31.67)"/>
      <path class="cls-6" d="M603.46,677.5,565.23,663l-.47-.18s.14-1,.25-2.49c.23-3,.36-8-1.07-9.71-2.13-2.49-8.18-.4-14.07-3.1s-16.79,2.13-16.79,2.13-7.86-1.45-11.33,4.23c-1.77,4.58-1.15,11.4-1.15,11.4l-.73.27c-4.55,1.7-29.33,11-34.58,14.77-5.79,4.11-12.2,46.22-14.26,58.58s-5.72,23.52-3.85,27.78,28.48,24.75,43.8,30,69.65,3.75,69.65,3.75.89-.24,2.46-.74c9.19-2.95,41.8-15.11,59.09-43.77C642.18,755.91,625.43,701,603.46,677.5ZM500.17,748.33c-2.81,2-1.31,9.72-1.31,9.72l-4.79-4.22,12-29.54L511.21,747S503,746.36,500.17,748.33Zm96.12,18.77c-1.32.68,3.8-13.52,1.37-16.73s-9.74-2.91-9.74-2.91l.63-3.89c.08-.43,4.33-22.2,4.33-22.2l1.43-1.72s14.87,25.5,17.53,34.48C611.84,754.13,595.64,767.1,596.29,767.1Z" transform="translate(-18.44 -31.67)"/>
      <path class="cls-10" d="M531.28,585.35,511.55,606.3s-2.72,2.41-1.64,8.48,3.6,11.3,5.5,11.71a27.7,27.7,0,0,0,4.57.41s4.23,9.16,7.22,12.76c0,0,1,14.14.49,18.07,0,0,7.09,6.19,13.77,7s17-9.44,17-9.44L561,642.74s6-9.18,6.46-11.63,3.18-1.82,4.54-3,4.51-6.6,5-11.7.56-11-5.37-9.23c-5.13-1.38-1.92-12.23-1.92-12.23l-9-8Z" transform="translate(-18.44 -31.67)"/>
      <path class="cls-12" d="M565.23,663a19.87,19.87,0,0,1-1,2.28c-3.25,6.14-17.44,17.84-17.44,17.84l-4.29-13.19-2.35,13.19C535.4,681,521,668.49,521,668.49s-.49-1.17-1.09-3l.73-.27s-.62-6.82,1.15-11.4c3.47-5.68,11.33-4.23,11.33-4.23s10.91-4.83,16.79-2.13,11.94.61,14.07,3.1.82,12.2.82,12.2Z" transform="translate(-18.44 -31.67)"/>
      <path class="cls-13" d="M603.46,677.5,565.23,663l-.47-.18s.14-1,.25-2.49l-.8,5-5.65,7.69a155.54,155.54,0,0,1,17.64,7.77,15.51,15.51,0,0,1,8.11,15.46l-7,60.26-2.88,34.22,8.71,9c9.19-2.95,41.8-15.11,59.09-43.77C642.18,755.91,625.43,701,603.46,677.5Zm-7.17,89.6c-1.32.68,3.8-13.52,1.37-16.73s-9.74-2.91-9.74-2.91l.63-3.89c.08-.43,4.33-22.2,4.33-22.2l1.43-1.72s14.87,25.5,17.53,34.48C611.84,754.13,595.64,767.1,596.29,767.1Z" transform="translate(-18.44 -31.67)"/>
      <path class="cls-13" d="M513.8,750.37l-5.94-19.87s-10.66-36.35-18-45.32l1.92,25.57s-6.27,30.54-12.08,39.62-7.05,11.33,0,11.33S504,775.39,504,775.39L502.64,764Zm-14.94,7.68-4.79-4.22,12-29.54L511.21,747s-8.23-.61-11,1.36S498.86,758.05,498.86,758.05Z" transform="translate(-18.44 -31.67)"/>
      <path class="cls-11" d="M527.2,639.66s1.1,10.71,0,15.61" transform="translate(-18.44 -31.67)"/>
      <path class="cls-11" d="M559.54,653.83a46.09,46.09,0,0,1,1.19-10.23" transform="translate(-18.44 -31.67)"/>
      <path class="cls-11" d="M562.41,593.34s6.48,8.14,6.15,14.29-.83,13.46-.66,20.61-11.47,22.1-17.45,23.43-11.14,1.66-15-2.16-7.65-9.14-12.63-16S519,611.79,519,611.79" transform="translate(-18.44 -31.67)"/>
      <path class="cls-11" d="M546.81,617.49a32.66,32.66,0,0,0-.5,6.77c.05,1.9.33,4,1.66,5.31.71.73,1.75,1.31,1.89,2.32a2.48,2.48,0,0,1-1.33,2.21,19,19,0,0,0-2.34,1.39" transform="translate(-18.44 -31.67)"/>
      <path class="cls-11" d="M536.52,636.28s.75,4.83,7.23,5.84" transform="translate(-18.44 -31.67)"/>
      <path class="cls-7" d="M537.19,621.17c0,1.4-.6,2.53-1.35,2.53s-1.34-1.13-1.34-2.53.6-2.53,1.34-2.53S537.19,619.77,537.19,621.17Z" transform="translate(-18.44 -31.67)"/>
      <path class="cls-7" d="M556.51,621.78c0,1.39-.6,2.52-1.34,2.52s-1.35-1.13-1.35-2.52.6-2.53,1.35-2.53S556.51,620.38,556.51,621.78Z" transform="translate(-18.44 -31.67)"/>
      <path class="cls-14" d="M552.62,615.66s6.28-6.29,11.59.72" transform="translate(-18.44 -31.67)"/>
      <path class="cls-14" d="M539.33,615.78s-4-4.47-10.27,0" transform="translate(-18.44 -31.67)"/>
      <path class="cls-7" d="M527.69,645.55s3.85,10.6,12.44,13.61,20-12.6,20-12.6l-.6-2s-7.48,9.71-15.79,8.06-16.55-12.93-16.55-12.93Z" transform="translate(-18.44 -31.67)"/>
      <path class="cls-11" d="M520,626.49s-5.12,1.81-6.49-2.19-6-14.5-1.94-18,7.37,4.63,7.37,4.63" transform="translate(-18.44 -31.67)"/>
      <path class="cls-11" d="M567.89,628.66s4.76,1,6.12-3,6-14.5,2-18-7.38,4.62-7.38,4.62" transform="translate(-18.44 -31.67)"/>
      <path class="cls-7" d="M518.92,621.17a7,7,0,0,0,4.49-2.66,11,11,0,0,0,1.31-4,49.11,49.11,0,0,0,.71-8.12,11.16,11.16,0,0,1,.29-3.16,8,8,0,0,1,1.71-2.82c1.79-2.09,3.94-3.86,5.64-6s2.95-4.91,2.49-7.63c0,0,11.62,10.62,28.37,7.34,9-1.77,17.66-9.68,16.61-19.63a8,8,0,0,0-6.35-6.92c-4.46-1.11-8.46,1.27-12.5,2.79-7.36,2.78-14.56-2-22-2.79-6.36-.68-14.17.11-17.48,6.43,0,0-11.43,1.34-16.43,10.72S510.29,607,510.29,607s3.83-4.64,8.75,4.75Z" transform="translate(-18.44 -31.67)"/>
      <path class="cls-7" d="M563.13,590.94s-3,15.4,4.76,22.85c0,0,1.68-4.63,3.39-5.76a17.84,17.84,0,0,0-1.35-17.09C564.29,582,563.13,590.94,563.13,590.94Z" transform="translate(-18.44 -31.67)"/>
      <path class="cls-15" d="M577.25,573.42c-1.14,4.24-4.73,7.53-8.79,9.18-10.71,4.36-21.1-.47-31.82-1.42-8.76-.77-18.41,7.12-19,16.11" transform="translate(-18.44 -31.67)"/>
      <path class="cls-15" d="M511,594.92a18.71,18.71,0,0,1,11.4-16.51" transform="translate(-18.44 -31.67)"/>
      <path class="cls-11" d="M524.73,653.83s7.06,7.77,16.67,11.4c0,0,12.81-3.71,19.33-12.64" transform="translate(-18.44 -31.67)"/>
      <circle class="cls-11" cx="533.09" cy="621.17" r="11.34" transform="translate(-228.85 247.1) rotate(-24.64)"/>
      <circle class="cls-11" cx="558.41" cy="621.17" r="11.34" transform="translate(-90.01 41.05) rotate(-7)"/>
      <path class="cls-11" d="M527.2,649.6a8.9,8.9,0,0,0-5.45,4.23c-2,3.53-.8,14.65-.8,14.65s10.36,10.26,19.18,14.58l2.6-14.63,4,14.63s13.66-9.66,17.44-17.83c0,0,1.24-9.52,0-12.64a4.36,4.36,0,0,0-4.07-3" transform="translate(-18.44 -31.67)"/>
      <path class="cls-11" d="M511,747.46s-4-27.13-9.43-38.2" transform="translate(-18.44 -31.67)"/>
      <path class="cls-11" d="M489.89,685.18a110.23,110.23,0,0,1,8.38,14" transform="translate(-18.44 -31.67)"/>
      <path class="cls-11" d="M596.29,705.43a78.49,78.49,0,0,1,4.46-13.24" transform="translate(-18.44 -31.67)"/>
      <path class="cls-11" d="M587.92,747.46s2.92-18.6,6.4-33.93" transform="translate(-18.44 -31.67)"/>
      <path class="cls-11" d="M592.88,721.36a21.43,21.43,0,0,1,11.28-7.72" transform="translate(-18.44 -31.67)"/>
      <path class="cls-11" d="M564.76,662.77s23.53,9.39,38.71,14.73c0,0,18.68,17.57,38.7,78.41,0,0-18.35,30.87-53.26,40.77" transform="translate(-18.44 -31.67)"/>
      <path class="cls-11" d="M595,768.21l16.87-14.09s8.92-6.78,18.2-2.14" transform="translate(-18.44 -31.67)"/>
      <path class="cls-11" d="M594.32,719.66s13.95,20.55,17.52,34.46" transform="translate(-18.44 -31.67)"/>
      <path class="cls-11" d="M499,758.83l-4.94-4.71s-7.33-1.28-15.62,4.29" transform="translate(-18.44 -31.67)"/>
      <path class="cls-11" d="M494.08,754.12s6.13-20.13,12.18-30.53" transform="translate(-18.44 -31.67)"/>
      <path class="cls-11" d="M520.59,665.23s-33.84,12.7-37.15,16.4-15.93,74.71-16.26,82.84c-.3,7.26,26.06,23.59,39.08,30.47" transform="translate(-18.44 -31.67)"/>
      <rect class="cls-5" x="577.85" y="583.06" width="55.05" height="39.11" rx="6.53"/>
      <polyline class="cls-11" points="595.61 594.82 585.03 601.46 594.85 610.18"/>
      <polyline class="cls-11" points="614.9 610.81 624.41 602.7 613.43 595.5"/>
      <line class="cls-11" x1="600.76" y1="615.8" x2="608.57" y2="591.3"/>
      <path class="cls-7" d="M545.9,689.23a2.23,2.23,0,1,1-2.23-2.23A2.22,2.22,0,0,1,545.9,689.23Z" transform="translate(-18.44 -31.67)"/>
      <g>
        <path class="cls-7" d="M585.05,808.14H508a1.81,1.81,0,0,1-1.81-1.81h0a1.81,1.81,0,0,1,1.81-1.8h77a1.81,1.81,0,0,1,1.81,1.8h0A1.81,1.81,0,0,1,585.05,808.14Z" transform="translate(-18.44 -31.67)"/>
        <path class="cls-5" d="M587.75,802.16l10.32-48.47a5.16,5.16,0,0,0-5.05-6.23h-90a5.16,5.16,0,0,0-5.06,6.16l9.25,46.85a5.15,5.15,0,0,0,4.94,4.15l70.4,1.62A5.18,5.18,0,0,0,587.75,802.16Z" transform="translate(-18.44 -31.67)"/>
        <path class="cls-7" d="M554.91,775.39a7.19,7.19,0,1,1-7.18-7.18A7.18,7.18,0,0,1,554.91,775.39Z" transform="translate(-18.44 -31.67)"/>
        <line class="cls-11" x1="550.59" y1="720.39" x2="561.28" y2="720.39"/>
        <line class="cls-11" x1="499.54" y1="720.39" x2="540.12" y2="720.39"/>
      </g>
      <path class="cls-7" d="M587.92,853.57l-8.2,21.53S558.8,869.83,532,864.33c-28-5.74-57.29-13.17-72.47-39.81-1.85-3.25-3.08-7.08-2.22-10.72,2.19-9.2,14.16-11.7,22.05-12.62a146,146,0,0,1,14.93-.84c2.54,0,10.92-1.36,12.95.13a59.28,59.28,0,0,0,9.74,5.77c4.48,1.9,69.88-1.71,69.88-1.71a23.39,23.39,0,0,0,2-7.85c10.28-5.23,34.09-9.65,44.15-7.7,15.81,3.08,25,12.3,23.28,22S619.68,846.54,587.92,853.57Z" transform="translate(-18.44 -31.67)"/>
      <path class="cls-16" d="M587.92,853.57S568,848.3,551.77,837.31s-28.95-23.72-51.6-21.09" transform="translate(-18.44 -31.67)"/>
      <path class="cls-16" d="M548,834.72c10.27-3,17.81-9.59,26.05-16C582.81,812,592,805.45,602,800.42" transform="translate(-18.44 -31.67)"/>
      <line class="cls-11" x1="525.98" y1="591.3" x2="529" y2="591.3"/>
    </g>
  </g>
</svg>
